<svg width="37" height="29" viewBox="0 0 37 29" fill="none" xmlns="http://www.w3.org/2000/svg">
<path d="M37 3.429C35.6404 4.015 34.178 4.406 32.6354 4.591C34.2037 3.685 35.4102 2.24 35.9764 0.533C34.5089 1.37 32.8831 1.985 31.1535 2.309C29.7722 0.884 27.8022 0 25.6193 0C21.4264 0 18.0278 3.278 18.0278 7.32C18.0278 7.892 18.0966 8.449 18.2261 8.99C11.9181 8.682 6.32339 5.764 2.58054 1.336C1.92281 2.418 1.55284 3.685 1.55284 5.022C1.55284 7.563 2.88987 9.8 4.92881 11.118C3.68428 11.081 2.51271 10.744 1.48707 10.204C1.48707 10.226 1.48707 10.259 1.48707 10.29C1.48707 13.841 4.1046 16.798 7.57409 17.471C6.94 17.64 6.26995 17.734 5.57934 17.734C5.08913 17.734 4.61126 17.68 4.14879 17.599C5.11482 20.501 7.91734 22.622 11.2378 22.685C8.63981 24.645 5.36764 25.819 1.80977 25.819C1.19521 25.819 0.594006 25.785 0 25.715C3.36158 27.786 7.35314 29 11.6376 29C25.5988 29 33.2366 17.844 33.2366 8.166C33.2366 7.849 33.2263 7.533 33.2109 7.221C34.7011 6.197 35.9857 4.905 37 3.429Z" fill="#293042"/>
</svg>
