<svg width="44" height="45" viewBox="0 0 44 45" fill="none" xmlns="http://www.w3.org/2000/svg">
<rect y="1" width="43" height="44" fill="#293042"/>
<path d="M44 0H3.72686e-06V45H44V0ZM10.4657 14.5772V42.1026H1.89449V14.5772H10.4657ZM1.89449 6.56592C1.89449 4.53774 3.60873 2.98762 6.18009 2.98762C8.75146 2.98762 10.3657 4.53774 10.4657 6.56592C10.4657 8.59411 8.86574 10.2311 6.18009 10.2311C3.60873 10.2311 1.89449 8.59411 1.89449 6.56592ZM41.8935 42.1026H33.3223C33.3223 42.1026 33.3223 28.6876 33.3223 27.6156C33.3223 24.7182 31.8937 21.8208 28.3224 21.7628H28.2081C24.7511 21.7628 23.3225 24.7471 23.3225 27.6156C23.3225 28.9339 23.3225 42.1026 23.3225 42.1026H14.7513V14.5772H23.3225V18.2859C23.3225 18.2859 26.0796 14.5772 31.6223 14.5772C37.2936 14.5772 41.8935 18.5322 41.8935 26.5435V42.1026Z" fill="#0A152B"/>
</svg>
