<svg width="46" height="44" viewBox="0 0 46 44" fill="none" xmlns="http://www.w3.org/2000/svg">
<path d="M44.7734 32.0781C38.9687 31.1211 36.3164 25.1094 36.2305 24.9141C36.2187 24.8789 36.1914 24.8164 36.1758 24.7812C36 24.4297 35.8242 23.9336 35.9727 23.582C36.2266 22.9805 37.4336 22.5977 38.1562 22.3672C38.4102 22.2852 38.6523 22.2109 38.8398 22.1367C40.5937 21.4414 41.4687 20.5352 41.4492 19.4336C41.4336 18.5469 40.7539 17.7344 39.7539 17.3828C39.4063 17.2344 39.0078 17.1602 38.6055 17.1602C38.332 17.1602 37.918 17.1992 37.5195 17.3828C36.8516 17.6953 36.2656 17.8633 35.8477 17.8828C35.7578 17.8789 35.6797 17.8711 35.6133 17.8594L35.6562 17.1719C35.8516 14.0625 36.0977 10.1875 35.0469 7.83203C31.9453 0.890625 25.375 0.351562 23.4336 0.351562L22.5508 0.359375C20.6133 0.359375 14.0547 0.898438 10.9609 7.83594C9.91015 10.1914 10.1523 14.0625 10.3516 17.1758L10.3594 17.293C10.3711 17.4844 10.3828 17.6758 10.3945 17.8594C9.96094 17.9375 9.11328 17.793 8.23437 17.3828C7.03906 16.8242 4.88672 17.5625 4.58984 19.125C4.45703 19.8164 4.61719 21.1289 7.16406 22.1328C7.35547 22.2109 7.59375 22.2852 7.85156 22.3672C8.57031 22.5977 9.77734 22.9766 10.0312 23.582C10.1797 23.9336 10.0039 24.4297 9.79687 24.8555C9.6875 25.1094 7.05078 31.1211 1.23437 32.0781C0.492186 32.1992 -0.0351577 32.8555 0.00390428 33.6133C0.0156233 33.8125 0.0664042 34.0117 0.148436 34.207C0.675779 35.4453 2.59375 36.2969 6.17187 36.8789C6.23437 37.0898 6.30469 37.4023 6.34375 37.5742C6.41797 37.9297 6.5 38.2891 6.60937 38.6641C6.71484 39.0195 7.07812 39.8438 8.21094 39.8438C8.55469 39.8438 8.92969 39.7695 9.33203 39.6914C9.92578 39.5742 10.668 39.4297 11.6211 39.4297C12.1523 39.4297 12.6992 39.4766 13.25 39.5664C14.2656 39.7344 15.1836 40.3867 16.25 41.1367C17.9141 42.3164 19.8008 43.6484 22.7266 43.6484C22.8047 43.6484 22.8828 43.6445 22.957 43.6406C23.0625 43.6445 23.1719 43.6484 23.2812 43.6484C26.207 43.6484 28.0937 42.3125 29.7617 41.1367C30.7773 40.4141 31.7383 39.7383 32.7578 39.5664C33.3086 39.4766 33.8555 39.4297 34.3867 39.4297C35.3047 39.4297 36.0312 39.5469 36.6797 39.6758C37.1406 39.7656 37.5078 39.8086 37.8477 39.8086C38.6055 39.8086 39.1875 39.375 39.3984 38.6484C39.5078 38.2812 39.5859 37.9258 39.6641 37.5664C39.6953 37.4336 39.7695 37.0977 39.8359 36.875C43.4141 36.293 45.332 35.4414 45.8555 34.2148C45.9414 34.0195 45.9883 33.8164 46.0039 33.6055C46.043 32.8594 45.5156 32.2031 44.7734 32.0781Z" fill="#2944E9"/>
</svg>
