<svg width="50" height="40" viewBox="0 0 50 40" fill="none" xmlns="http://www.w3.org/2000/svg">
<path d="M50 4.72966C48.1627 5.53793 46.1864 6.07724 44.1019 6.33241C46.2211 5.08276 47.8516 3.08966 48.6168 0.735172C46.6336 1.88966 44.4366 2.73793 42.0993 3.18483C40.2328 1.21931 37.5705 0 34.6207 0C28.9545 0 24.3619 4.52138 24.3619 10.0966C24.3619 10.8855 24.4549 11.6538 24.6299 12.4C16.1056 11.9752 8.54512 7.95035 3.48721 1.84276C2.59839 3.33517 2.09844 5.08276 2.09844 6.9269C2.09844 10.4317 3.90523 13.5172 6.66056 15.3352C4.97875 15.2841 3.39555 14.8193 2.00955 14.0745C2.00955 14.1048 2.00955 14.1503 2.00955 14.1931C2.00955 19.091 5.54676 23.1697 10.2353 24.0979C9.37838 24.331 8.4729 24.4607 7.53965 24.4607C6.8772 24.4607 6.23143 24.3862 5.60648 24.2745C6.91192 28.2772 10.6991 31.2028 15.1862 31.2897C11.6754 33.9931 7.25356 35.6124 2.44563 35.6124C1.61514 35.6124 0.802711 35.5655 0 35.469C4.54268 38.3255 9.93667 40 15.7265 40C34.593 40 44.9143 24.6124 44.9143 11.2634C44.9143 10.8262 44.9004 10.3903 44.8796 9.96C46.8933 8.54759 48.6293 6.76552 50 4.72966Z" fill="#2944E9"/>
</svg>
