<svg width="43" height="43" viewBox="0 0 43 43" fill="none" xmlns="http://www.w3.org/2000/svg">
<path d="M21.5 0C9.62614 0 0 9.62614 0 21.5C0 25.4726 1.08209 29.1909 2.96236 32.3836L0.209961 42.6908L11.021 40.2724C14.1219 42.0071 17.6945 43 21.5 43C33.3739 43 43 33.3739 43 21.5C43 9.62614 33.3739 0 21.5 0ZM21.5 3.90909C31.2151 3.90909 39.0909 11.7849 39.0909 21.5C39.0909 31.2151 31.2151 39.0909 21.5 39.0909C17.8538 39.0909 14.4672 37.9816 11.6586 36.0827L5.6594 37.4246L7.18639 31.7022C5.13119 28.8231 3.90909 25.3075 3.90909 21.5C3.90909 11.7849 11.7849 3.90909 21.5 3.90909ZM14.1437 11.4696C13.7851 11.4696 13.2085 11.6022 12.7179 12.1357C12.2361 12.6703 10.8607 13.9543 10.8607 16.5793C10.8607 19.1945 12.7603 21.7314 13.0271 22.0803C13.2939 22.4389 16.7119 27.9884 22.1299 30.1218C26.6214 31.8906 27.5391 31.5402 28.5222 31.4483C29.4976 31.3643 31.6718 30.1652 32.1145 28.9231C32.5562 27.68 32.5558 26.614 32.418 26.3902C32.2841 26.1732 31.9342 26.0385 31.4006 25.7718C30.867 25.504 28.2493 24.2145 27.7587 24.0386C27.275 23.8627 26.9166 23.7703 26.5677 24.3039C26.209 24.8375 25.1923 26.0384 24.8746 26.3883C24.5668 26.7469 24.2592 26.7887 23.7256 26.5219C23.192 26.2551 21.4761 25.695 19.4424 23.8783C17.8602 22.47 16.7917 20.7261 16.4838 20.1944C16.175 19.6618 16.4499 19.3713 16.7167 19.1045C16.9591 18.8719 17.2516 18.4866 17.5184 18.1788C17.7764 17.8622 17.8674 17.6461 18.0433 17.2874C18.228 16.9385 18.1342 16.6208 18.0013 16.354C17.8694 16.0863 16.8347 13.4526 16.3598 12.403C15.961 11.5195 15.5442 11.4937 15.1611 11.4849C14.8513 11.4692 14.4926 11.4696 14.1437 11.4696Z" fill="#2944E9"/>
</svg>
